<svg height="336" viewBox="0 0 744 336" width="744" xmlns="http://www.w3.org/2000/svg"><g fill-rule="evenodd" opacity=".2"><path d="m15.8 171c-8.6 0-15.5-6.9-15.5-15.5v-36.5c0-8.6 6.9-15.5 15.5-15.5s15.5 6.9 15.5 15.5v36.5c0 8.6-7 15.5-15.5 15.5z"/><path d="m104.8 171c-8.6 0-15.5-6.9-15.5-15.5v-79c0-8.6 6.9-15.5 15.5-15.5s15.5 6.9 15.5 15.5v79c0 8.6-7 15.5-15.5 15.5z"/><path d="m282.8 171c-8.6 0-15.5-6.9-15.5-15.5v-79c0-8.6 6.9-15.5 15.5-15.5s15.5 6.9 15.5 15.5v79c0 8.6-7 15.5-15.5 15.5z"/><path d="m193.8 204c-8.6 0-15.5-6.9-15.5-15.5v-173c0-8.6 6.9-15.5 15.5-15.5s15.5 6.9 15.5 15.5v173c0 8.6-7 15.5-15.5 15.5z"/><path d="m371.2 171c-8.6 0-15.5-6.9-15.5-15.5v-36.5c0-8.6 6.9-15.5 15.5-15.5s15.5 6.9 15.5 15.5v36.5c0 8.6-6.9 15.5-15.5 15.5z"/><path d="m728.2 171c-8.6 0-15.5-6.9-15.5-15.5v-36.5c0-8.6 6.9-15.5 15.5-15.5s15.5 6.9 15.5 15.5v36.5c0 8.6-6.9 15.5-15.5 15.5z"/><path d="m460.2 171c-8.6 0-15.5-6.9-15.5-15.5v-79c0-8.6 6.9-15.5 15.5-15.5s15.5 6.9 15.5 15.5v79c0 8.6-6.9 15.5-15.5 15.5z"/><path d="m638.2 171c-8.6 0-15.5-6.9-15.5-15.5v-79c0-8.6 6.9-15.5 15.5-15.5s15.5 6.9 15.5 15.5v79c0 8.6-6.9 15.5-15.5 15.5z"/><path d="m549.2 204c-8.6 0-15.5-6.9-15.5-15.5v-173c0-8.6 6.9-15.5 15.5-15.5s15.5 6.9 15.5 15.5v173c0 8.6-6.9 15.5-15.5 15.5z"/><g transform="translate(287 204)"><path d="m35.8 131.5c-12 0-20.9-3-26.6-9.1s-8.7-16.2-9-30.3l25.2-3.3c0 4 .2 7.4.7 10.1.4 2.7 1.1 4.8 1.9 6.3.8 1.4 1.7 2.5 2.7 3s2.1.9 3.3.9c3.3 0 5-2.4 5-7.2 0-4.7-1.1-8.7-3.2-12.1s-5.5-7.1-10.2-11.1l-7.7-6.5c-2.8-2.4-5.1-4.5-6.8-6.4-1.8-1.9-3.6-4.1-5.4-6.8s-3.2-5.7-4.1-9-1.3-6.9-1.3-10.9c0-10.5 3.2-18.6 9.5-24.3s15.1-8.6 26.2-8.6c19.9 0 30 11.8 30.1 35.4l-25.8 2.6c0-3.2 0-5.6-.1-7.1-.1-1.6-.3-3.2-.6-4.9s-.9-2.9-1.6-3.5c-.8-.7-1.8-1-3-1-1.8 0-3.2 1-4.1 2.9s-1.4 3.7-1.4 5.6c0 1 .1 2 .3 3s.3 1.8.5 2.6c.1.8.5 1.6 1 2.5s.9 1.6 1.1 2.2c.2.5.7 1.2 1.5 2.1s1.2 1.5 1.5 1.8c.2.3.8 1 1.8 1.8.9.9 1.5 1.4 1.7 1.6s.8.7 1.9 1.7 1.7 1.5 1.8 1.6l7 6.2c3 2.7 5.5 5.2 7.6 7.5s4.1 5 6 8.1 3.3 6.4 4.3 10 1.4 7.5 1.4 11.6c0 8.7-3 16.1-9 22-6.4 6-14.3 9-24.1 9z"/><path d="m124.875038 131.072714c-12 0-20.9-3-26.6000005-9.1-5.7-6.1-8.7-16.2-9-30.3000002l25.2000005-3.3c0 4 .2 7.4.7 10.1.4 2.7000002 1.1 4.8000002 1.9 6.3000002.8 1.4 1.7 2.5 2.7 3s2.1.9 3.3.9c3.3 0 5-2.4 5-7.2 0-4.7000002-1.1-8.7000002-3.2-12.1000002s-5.5-7.1-10.2-11.1l-7.7-6.5c-2.8-2.4-5.1-4.5-6.8-6.4-1.8000005-1.9-3.6000005-4.1-5.4000005-6.8s-3.2-5.7-4.1-9-1.3-6.9-1.3-10.9c0-10.5 3.2-18.6 9.5-24.3 6.3000005-5.70000003 15.1000005-8.60000003 26.2000005-8.60000003 19.9 0 30 11.80000003 30.1 35.40000003l-25.8 2.6c0-3.2 0-5.6-.1-7.1-.1-1.6-.3-3.2-.6-4.9s-.9-2.9-1.6-3.5c-.8-.7-1.8-1-3-1-1.8 0-3.2 1-4.1 2.9s-1.4 3.7-1.4 5.6c0 1 .1 2 .3 3s.3 1.8.5 2.6c.1.8.5 1.6 1 2.5s.9 1.6 1.1 2.2c.2.5.7 1.2 1.5 2.1s1.2 1.5 1.5 1.8c.2.3.8 1 1.8 1.8.9.9 1.5 1.4 1.7 1.6s.8.7 1.9 1.7 1.7 1.5 1.8 1.6l7 6.2c3 2.7 5.5 5.2 7.6 7.5s4.1 5 6 8.1 3.3 6.4 4.3 10 1.4 7.5 1.4 11.6000002c0 8.7-3 16.1-9 22-6.5 6-14.4 9-24.1 9z" transform="matrix(.9781476 -.20791169 .20791169 .9781476 -11.524378 27.198291)"/></g></g></svg>